<svg preserveAspectRatio="none" overflow="visible" style="display: block;" width="20.4082" height="20.4082" viewBox="0 0 20.4082 20.4082" fill="none" xmlns="http://www.w3.org/2000/svg">
<g id="469908671">
<path id="WzuMf0_io" d="M12.1173 3.82617C14.301 4.401 16.0068 6.10678 16.5816 8.29046" stroke="white" stroke-linecap="round" stroke-linejoin="round"/>
<path id="Ip9lA74Fq" d="M11.4796 6.37793C12.7968 6.72997 13.6786 7.61177 14.0306 8.92895" stroke="white" stroke-linecap="round" stroke-linejoin="round"/>
<g id="Bt6PzjR3u">
</g>
<path id="iWLHlotSZ" d="M12.4677 12.2235C12.6471 12.1045 12.8742 12.0841 13.0723 12.1691L16.8316 13.8536C17.0918 13.9642 17.2483 14.2337 17.2143 14.5152C16.9583 16.4293 15.324 17.8579 13.3929 17.857C7.40477 17.857 2.55103 13.0024 2.55103 7.01518C2.54933 5.08321 3.97875 3.44971 5.89286 3.1929C6.17348 3.15974 6.44303 3.31535 6.55443 3.57556L8.23895 7.33831C8.32314 7.53474 8.30358 7.76008 8.18623 7.93865L6.483 9.96416C6.3597 10.1504 6.34354 10.3868 6.43963 10.5875C7.09865 11.937 8.49405 13.3154 9.8478 13.9684C10.0493 14.0637 10.2866 14.0458 10.4719 13.9208L12.4677 12.2235Z" stroke="white" stroke-linecap="round" stroke-linejoin="round"/>
</g>
</svg>
