<svg preserveAspectRatio="none" overflow="visible" style="display: block;" width="24" height="24" viewBox="0 0 24 24" fill="none" xmlns="http://www.w3.org/2000/svg">
<g id="Frame">
<path id="Vector" fill-rule="evenodd" clip-rule="evenodd" d="M12 22C17.5229 22 22 17.5229 22 12C22 6.47715 17.5229 2 12 2C6.47715 2 2 6.47715 2 12C2 17.5229 6.47715 22 12 22Z" stroke="white"/>
<path id="Vector_2" d="M2 12H22" stroke="white"/>
<path id="Vector_3" fill-rule="evenodd" clip-rule="evenodd" d="M12 22C14.2092 22 16 17.5229 16 12C16 6.47715 14.2092 2 12 2C9.79085 2 8 6.47715 8 12C8 17.5229 9.79085 22 12 22Z" stroke="white"/>
<path id="Vector_4" d="M4.92896 5.07105C6.7386 6.8807 9.2386 8 12 8C14.7615 8 17.2615 6.8807 19.0711 5.07105" stroke="white"/>
<path id="Vector_5" d="M19.0711 18.9289C17.2615 17.1193 14.7615 16 12 16C9.2386 16 6.7386 17.1193 4.92896 18.9289" stroke="white"/>
</g>
</svg>
